<svg xmlns="http://www.w3.org/2000/svg"  viewBox="0 0 333333 333333" shape-rendering="geometricPrecision" text-rendering="geometricPrecision" image-rendering="optimizeQuality" fill-rule="evenodd" clip-rule="evenodd"><defs><linearGradient id="a" gradientUnits="userSpaceOnUse" x1="166667" y1="0" x2="166667" y2="333333"><stop offset="0" stop-color="#03c6ff"/><stop offset="1" stop-color="#006dff"/></linearGradient></defs><path d="M166667 0c92048 0 166667 74619 166667 166667s-74619 166667-166667 166667S0 258715 0 166667 74619 0 166667 0zm0 75896c50230 0 90948 37431 90948 83607 0 46174-40719 83607-90948 83607-8687 0-17090-1120-25046-3212l-31781 17538v-32659c-20799-15322-34122-38866-34122-65274 0-46176 40720-83607 90949-83607zm-13894 88484l-45513 24341 49679-53492 24336 25295 44699-24735-50024 52596-23176-24006z" fill="url(#a)"/></svg>